<mxfile host="65bd71144e" modified="2020-12-31T08:24:20.695Z" agent="5.0 (Windows NT 10.0; Win64; x64) AppleWebKit/537.36 (KHTML, like Gecko) Code/1.52.1 Chrome/83.0.4103.122 Electron/9.3.5 Safari/537.36" version="13.10.0" etag="9_I3t0MPbkGU-biH90uG" type="embed">
    <diagram id="CxsQLD1r3eJMsobWsrjp" name="Page-1">
        <mxGraphModel dx="987" dy="368" grid="1" gridSize="10" guides="1" tooltips="1" connect="1" arrows="1" fold="1" page="1" pageScale="1" pageWidth="827" pageHeight="1169" math="0" shadow="0">
            <root>
                <mxCell id="0"/>
                <mxCell id="1" parent="0"/>
                <mxCell id="2" value="" style="fontColor=#0066CC;verticalAlign=top;verticalLabelPosition=bottom;labelPosition=center;align=center;html=1;outlineConnect=0;fillColor=#CCCCCC;strokeColor=#6881B3;gradientColor=none;gradientDirection=north;strokeWidth=2;shape=mxgraph.networks.laptop;" vertex="1" parent="1">
                    <mxGeometry x="80" y="100" width="60" height="40" as="geometry"/>
                </mxCell>
                <mxCell id="3" value="" style="fontColor=#0066CC;verticalAlign=top;verticalLabelPosition=bottom;labelPosition=center;align=center;html=1;outlineConnect=0;fillColor=#CCCCCC;strokeColor=#6881B3;gradientColor=none;gradientDirection=north;strokeWidth=2;shape=mxgraph.networks.desktop_pc;" vertex="1" parent="1">
                    <mxGeometry x="330" y="90" width="30" height="60" as="geometry"/>
                </mxCell>
                <mxCell id="4" value="GET /index.html&lt;br&gt;If-None-Match: abcd" style="rounded=1;whiteSpace=wrap;html=1;" vertex="1" parent="1">
                    <mxGeometry x="40" y="40" width="140" height="40" as="geometry"/>
                </mxCell>
                <mxCell id="5" value="" style="aspect=fixed;html=1;points=[];align=center;image;fontSize=12;image=img/lib/azure2/general/File.svg;" vertex="1" parent="1">
                    <mxGeometry x="401.23" y="100" width="32.46" height="40" as="geometry"/>
                </mxCell>
                <mxCell id="6" value="index.html" style="rounded=1;whiteSpace=wrap;html=1;" vertex="1" parent="1">
                    <mxGeometry x="379.00000000000006" y="60" width="70" height="30" as="geometry"/>
                </mxCell>
                <mxCell id="21" style="edgeStyle=orthogonalEdgeStyle;rounded=0;orthogonalLoop=1;jettySize=auto;html=1;endWidth=13;endSize=7.81;" edge="1" parent="1" source="9">
                    <mxGeometry relative="1" as="geometry">
                        <mxPoint x="420" y="200" as="targetPoint"/>
                        <Array as="points">
                            <mxPoint x="520" y="200"/>
                        </Array>
                    </mxGeometry>
                </mxCell>
                <mxCell id="9" value="ETag: XXXX" style="rounded=1;whiteSpace=wrap;html=1;" vertex="1" parent="1">
                    <mxGeometry x="470" y="100" width="100" height="30" as="geometry"/>
                </mxCell>
                <mxCell id="11" value="HTTPリクエスト" style="shape=flexArrow;endArrow=classic;html=1;endWidth=16;endSize=3.25;" edge="1" parent="1">
                    <mxGeometry x="0.0667" y="20" width="50" height="50" relative="1" as="geometry">
                        <mxPoint x="160" y="120" as="sourcePoint"/>
                        <mxPoint x="310" y="120" as="targetPoint"/>
                        <mxPoint as="offset"/>
                    </mxGeometry>
                </mxCell>
                <mxCell id="13" value="一致した場合" style="rounded=1;whiteSpace=wrap;html=1;" vertex="1" parent="1">
                    <mxGeometry x="295" y="170" width="100" height="30" as="geometry"/>
                </mxCell>
                <mxCell id="14" value="異なる場合" style="rounded=1;whiteSpace=wrap;html=1;" vertex="1" parent="1">
                    <mxGeometry x="295" y="210" width="100" height="30" as="geometry"/>
                </mxCell>
                <mxCell id="16" value="304 Not Modified" style="shape=flexArrow;endArrow=classic;html=1;endWidth=16;endSize=3.25;" edge="1" parent="1">
                    <mxGeometry x="-0.001" y="-15" width="50" height="50" relative="1" as="geometry">
                        <mxPoint x="280" y="184.5" as="sourcePoint"/>
                        <mxPoint x="160" y="185" as="targetPoint"/>
                        <mxPoint as="offset"/>
                    </mxGeometry>
                </mxCell>
                <mxCell id="17" value="200 OK" style="shape=flexArrow;endArrow=classic;html=1;endWidth=16;endSize=3.25;" edge="1" parent="1">
                    <mxGeometry x="-0.001" y="-15" width="50" height="50" relative="1" as="geometry">
                        <mxPoint x="280" y="224.5" as="sourcePoint"/>
                        <mxPoint x="160" y="225" as="targetPoint"/>
                        <mxPoint as="offset"/>
                    </mxGeometry>
                </mxCell>
                <mxCell id="20" value="弱いアルゴリズムで比較&lt;br&gt;（中身のみの比較）" style="text;html=1;align=center;verticalAlign=middle;resizable=0;points=[];autosize=1;" vertex="1" parent="1">
                    <mxGeometry x="449" y="210" width="150" height="30" as="geometry"/>
                </mxCell>
                <mxCell id="22" value="キャッシュ" style="text;html=1;align=center;verticalAlign=middle;resizable=0;points=[];autosize=1;" vertex="1" parent="1">
                    <mxGeometry x="60" y="175" width="80" height="20" as="geometry"/>
                </mxCell>
                <mxCell id="23" value="最新コンテンツ" style="text;html=1;align=center;verticalAlign=middle;resizable=0;points=[];autosize=1;" vertex="1" parent="1">
                    <mxGeometry x="50" y="215" width="100" height="20" as="geometry"/>
                </mxCell>
            </root>
        </mxGraphModel>
    </diagram>
</mxfile>